<svg xmlns="http://www.w3.org/2000/svg" width="900" height="480">
  <defs>
    <linearGradient id="bg" x1="0%" y1="0%" x2="100%" y2="100%">
      <stop offset="0%" stop-color="#0f172a"/>
      <stop offset="100%" stop-color="#1f2937"/>
    </linearGradient>
  </defs>
  <rect width="900" height="480" fill="url(#bg)"/>
  <text x="40" y="70" fill="#22c55e" font-size="36" font-family="Inter, Arial, sans-serif" font-weight="700">Pulse — mini social feed</text>
  <rect x="40" y="110" width="260" height="320" rx="16" fill="#111827" stroke="#22c55e" stroke-width="2"/>
  <text x="60" y="150" fill="#e5e7eb" font-size="18" font-family="Inter, Arial, sans-serif">Create post</text>
  <rect x="60" y="170" width="220" height="46" rx="10" fill="#1f2937" stroke="#374151"/>
  <text x="70" y="200" fill="#9ca3af" font-size="14" font-family="Inter, Arial, sans-serif">Title</text>
  <rect x="60" y="224" width="220" height="120" rx="10" fill="#1f2937" stroke="#374151"/>
  <text x="70" y="254" fill="#9ca3af" font-size="14" font-family="Inter, Arial, sans-serif">Content...</text>
  <rect x="60" y="360" width="220" height="36" rx="10" fill="#22c55e"/>
  <text x="140" y="385" fill="#0b1120" font-size="14" font-family="Inter, Arial, sans-serif" font-weight="700">Publish</text>
  <rect x="340" y="110" width="500" height="320" rx="16" fill="#0b1220" stroke="#22c55e" stroke-width="2"/>
  <text x="360" y="150" fill="#e5e7eb" font-size="18" font-family="Inter, Arial, sans-serif">Feed</text>
  <rect x="360" y="170" width="460" height="70" rx="12" fill="#111827" stroke="#1f2937"/>
  <circle cx="388" cy="205" r="18" fill="#22c55e"/>
  <text x="416" y="190" fill="#e5e7eb" font-size="14" font-family="Inter, Arial, sans-serif" font-weight="700">alice</text>
  <text x="416" y="212" fill="#9ca3af" font-size="13" font-family="Inter, Arial, sans-serif">“Hello from Mars lab”</text>
  <rect x="360" y="250" width="460" height="70" rx="12" fill="#111827" stroke="#1f2937"/>
  <circle cx="388" cy="285" r="18" fill="#fb923c"/>
  <text x="416" y="270" fill="#e5e7eb" font-size="14" font-family="Inter, Arial, sans-serif" font-weight="700">bob</text>
  <text x="416" y="292" fill="#9ca3af" font-size="13" font-family="Inter, Arial, sans-serif">“New launch at 18:00 UTC”</text>
  <rect x="360" y="330" width="460" height="70" rx="12" fill="#111827" stroke="#1f2937"/>
  <circle cx="388" cy="365" r="18" fill="#38bdf8"/>
  <text x="416" y="350" fill="#e5e7eb" font-size="14" font-family="Inter, Arial, sans-serif" font-weight="700">carol</text>
  <text x="416" y="372" fill="#9ca3af" font-size="13" font-family="Inter, Arial, sans-serif">“Looking for teammates”</text>
  <text x="360" y="440" fill="#9ca3af" font-size="12" font-family="Inter, Arial, sans-serif">Dark UI • uploads validated • JSON API /api/posts</text>
</svg>
